<?xml version="1.0" standalone="no"?><!DOCTYPE svg PUBLIC "-//W3C//DTD SVG 1.1//EN" "http://www.w3.org/Graphics/SVG/1.1/DTD/svg11.dtd"><svg t="1737016362306" class="icon" viewBox="0 0 1079 1024" version="1.1" xmlns="http://www.w3.org/2000/svg" p-id="23842" xmlns:xlink="http://www.w3.org/1999/xlink" width="210.7421875" height="200"><path d="M748.382199 714.62755c39.114857-3.374516 69.421173-37.798796 67.463954-78.938362-2.058455-41.139566-35.773032-74.145495-76.845108-74.145495h-2.733358c-42.421882 1.383552-75.495301 37.090147-74.145495 79.617483a81.927972 81.927972 0 0 0 22.240169 51.871582c-47.147259 91.695087-117.950929 159.129513-225.170898 215.758107-72.120786 37.69756-148.324735 51.939072-222.47023 41.81447-61.996183-8.741051-110.526994-36.448989-140.225898-80.895582-44.446592-67.462899-48.497066-140.225897-11.474408-213.016313 27.031981-52.627684 67.462899-91.032838 94.459026-109.932236-6.749032-17.515846-14.848924-47.147259-18.899398-69.388482C-39.039985 620.333032-18.72329 815.805026 41.923087 908.175016c45.188985 67.395409 137.556866 110.52594 238.670015 110.52594 26.965545 0 55.313588-1.990964 82.920291-8.741051 175.324026-33.714577 308.091189-138.875036 384.295139-293.916113z m240.665198-168.541249C884.591368 423.37625 730.832608 355.979787 555.542327 355.979787H532.59351c-11.373173-24.939781-37.663815-40.464663-67.362718-40.464664h-2.024709c-42.421882 0-75.495301 36.448989-74.11175 78.870872 1.349806 40.397173 35.739287 74.145495 76.845107 74.145495h3.340771c30.370643-1.349806 56.663394-20.247095 67.396463-47.214749h24.973527c103.911889 0 202.260044 30.340061 291.958894 89.635577 68.712525 45.188985 117.984674 104.485556 145.625122 175.324026 24.197388 57.946764 22.915072 114.610158-2.024709 161.858653-38.439954 74.11175-103.169495 113.257188-188.755654 113.257189-53.963781 0-106.508157-16.872579-133.504283-28.990255-16.16604 13.397882-43.164276 35.671796-62.738577 49.171968 59.296571 26.898055 119.335535 42.421882 177.281245 42.421883 131.484847 0 229.186572-74.11175 266.310464-145.625123 40.397173-80.895581 37.090147-217.071005-66.113093-333.705873z m-697.076903 192.769218c1.316061 40.464663 35.671796 74.145495 76.845107 74.145495h2.699613c43.164276-1.349806 76.170205-37.022657 74.145495-79.545775 0-40.464663-35.064383-74.11175-76.170204-74.11175h-2.733358c-2.699613 0-6.716341 0-10.123548 1.316062-55.921-94.394699-79.545775-195.57323-70.737234-304.681873 5.366535-82.245388 32.364771-153.75876 80.861836-213.055332 40.464663-50.589265 116.631704-75.562792 168.57394-76.845107 145.620905-2.731249 206.299972 178.701705 210.991604 250.82249l67.396463 20.21546C798.195326 115.99371 660.737586 0 529.25274 0c-123.380736 0-237.286464 89.670377-283.184098 221.154169-62.672141 175.319808-21.56632 343.834693 55.315696 478.690892-6.716341 8.774796-10.76576 24.264878-9.415953 39.047367z" fill="#764ABC" p-id="23843"></path></svg>