<?xml version="1.0" standalone="no"?><!DOCTYPE svg PUBLIC "-//W3C//DTD SVG 1.1//EN" "http://www.w3.org/Graphics/SVG/1.1/DTD/svg11.dtd"><svg t="1736835802304" class="icon" viewBox="0 0 1024 1024" version="1.1" xmlns="http://www.w3.org/2000/svg" p-id="10372" xmlns:xlink="http://www.w3.org/1999/xlink" width="200" height="200"><path d="M999.773737 512.039909l0.001024-0.039909c0-24.041556-19.48989-43.532469-43.532469-43.532469h-43.532469v0.058328c15.114233 0 27.366278 12.252045 27.366277 27.365255v391.491369c0 15.115256-12.253068 27.366278-27.366277 27.366277v0.599658h43.532469c24.042579 0 43.532469-19.490913 43.532469-43.532469l-0.001024-0.039909V512.039909zM869.177354 173.038008h-70.898747v16.165168h27.366278c15.114233 0 27.366278 12.252045 27.366277 27.365255v197.180871h59.696614v-197.099007l0.002047-0.078794c0-24.042579-19.48989-43.533492-43.532469-43.533493zM754.700089 118.30443h-70.898746v16.165168h27.366277c15.114233 0 27.366278 12.252045 27.366278 27.365254v251.91445h59.696614V161.915693l0.002046-0.078794c0-24.041556-19.48989-43.532469-43.532469-43.532469zM841.811076 468.467531c-1.940189 0-3.845585 0.140193-5.718235 0.385786H508.650207c-14.001899 0-26.450419-6.617721-34.413787-16.887622h-0.355088l-1.63422-2.088568-52.687989-67.312058c-7.779174-11.850909-21.176298-19.682271-36.411281-19.682272H67.757708c-24.042579 0-43.532469 19.490913-43.532469 43.532469v105.584734h-0.801248v359.815949h0.801248c0 24.041556 19.48989 43.532469 43.532469 43.532469h315.390134v-0.599658H834.632583c2.336208 0.387833 4.731768 0.599657 7.178493 0.599658 24.042579 0 43.532469-19.490913 43.532469-43.532469V512c0-24.041556-19.48989-43.532469-43.532469-43.532469z" fill="" p-id="10373"></path><path d="M112.419907 308.150242h265.432325a43.905976 43.905976 0 0 1 5.584182-0.36839c15.234983 0 28.632107 7.831362 36.411281 19.682271l52.68799 67.312059 1.512446 1.932002h0.355088c7.902994 10.288321 20.293185 16.945951 34.248011 17.036001v0.138147h175.150113V107.10332h-0.01535c0-24.041556-19.48989-43.532469-43.532469-43.532469H154.822646c-24.042579 0-43.532469 19.490913-43.532469 43.532469 0 3.384074 0.399089 6.67298 1.12973 9.836019v191.210903z m457.129299-25.6461H225.647715v-0.026606c-14.639418-0.538259-26.342971-12.568247-26.342972-27.341718 0-14.771425 11.704576-26.800389 26.342972-27.339672v-0.026606h343.901491c15.114233 0 27.366278 12.252045 27.366277 27.365255 0 15.117302-12.252045 27.369348-27.366277 27.369347zM225.452263 118.330012v-0.026606h343.901491c15.114233 0 27.366278 12.252045 27.366278 27.365255 0 15.115256-12.253068 27.367301-27.366278 27.367301H225.452263v-0.026606c-14.639418-0.538259-26.342971-12.568247-26.342971-27.341719 0-14.768355 11.704576-26.798343 26.342971-27.337625z" fill="" p-id="10374"></path></svg>