<?xml version="1.0" standalone="no"?><!DOCTYPE svg PUBLIC "-//W3C//DTD SVG 1.1//EN" "http://www.w3.org/Graphics/SVG/1.1/DTD/svg11.dtd"><svg class="icon" width="200px" height="200.00px" viewBox="0 0 1024 1024" version="1.1" xmlns="http://www.w3.org/2000/svg"><path d="M601.216 85.333333a42.666667 42.666667 0 0 1 30.485333 12.821334l209.450667 213.973333a42.666667 42.666667 0 0 1 12.181333 29.866667V853.333333a85.333333 85.333333 0 0 1-85.333333 85.333334H256a85.333333 85.333333 0 0 1-85.333333-85.333334V170.666667a85.333333 85.333333 0 0 1 85.333333-85.333334h345.216z" fill="#DCDFE6" /><path d="M384.341333 800.021333l-3.072-0.106666a32 32 0 0 1-29.141333-34.624l21.930667-256c2.773333-32.234667 46.186667-40.469333 60.565333-11.477334l77.290667 156.010667 78.805333-156.202667c14.08-27.946667 55.082667-20.906667 60.074667 8.789334l0.384 3.029333 20.714666 256a32 32 0 1 1-63.786666 5.162667l-11.52-142.549334-56.362667 111.722667c-11.413333 22.613333-42.88 23.402667-55.744 2.517333l-1.493333-2.730666-54.912-110.826667-12.181334 142.037333a32 32 0 0 1-31.552 29.248zM640.064 106.816l204.074667 208.938667c9.194667 11.733333 9.194667 20.714667 9.194666 26.24H630.165333a32 32 0 0 1-32-32V85.333333c14.336 0 27.925333 4.757333 41.898667 21.482667z" fill="#323847" /></svg>