<?xml version="1.0" standalone="no"?><!DOCTYPE svg PUBLIC "-//W3C//DTD SVG 1.1//EN" "http://www.w3.org/Graphics/SVG/1.1/DTD/svg11.dtd"><svg t="1736825166890" class="icon" viewBox="0 0 1024 1024" version="1.1" xmlns="http://www.w3.org/2000/svg" p-id="9172" xmlns:xlink="http://www.w3.org/1999/xlink" width="200" height="200"><path d="M846.2 570.47a135.51 135.51 0 0 0-97.724 66.8 135.714 135.714 0 0 0-9.011 117.93A340.241 340.241 0 0 1 618.7 825.037 135.543 135.543 0 0 0 512 773.803a135.68 135.68 0 0 0-106.735 51.2A340.514 340.514 0 0 1 284.501 755.2a135.714 135.714 0 0 0-8.977-117.93 135.51 135.51 0 0 0-97.758-66.8 344.78 344.78 0 0 1 0-139.503 135.578 135.578 0 0 0 97.758-66.764 135.782 135.782 0 0 0 8.977-117.965A340.241 340.241 0 0 1 405.265 176.4 135.714 135.714 0 0 0 512 227.67c42.36 0 81.135-19.114 106.7-51.268a339.968 339.968 0 0 1 120.765 69.837 135.817 135.817 0 0 0 9.01 117.965 135.578 135.578 0 0 0 97.724 66.764 342.972 342.972 0 0 1 0 139.503m59.904-181.657a33.894 33.894 0 0 0-35.02-24.747 67.823 67.823 0 0 1-63.488-33.997 67.994 67.994 0 0 1 2.252-72.021 34.133 34.133 0 0 0-3.925-42.598 408.951 408.951 0 0 0-193.809-111.992 34.1 34.1 0 0 0-38.912 17.954A67.925 67.925 0 0 1 512 159.402a67.925 67.925 0 0 1-61.201-37.99 34.133 34.133 0 0 0-38.912-17.954 408.815 408.815 0 0 0-193.81 111.957 34.133 34.133 0 0 0-3.959 42.667 67.925 67.925 0 0 1 2.253 71.987 67.925 67.925 0 0 1-63.488 33.997 33.621 33.621 0 0 0-34.986 24.747A408.678 408.678 0 0 0 102.4 500.736c0 38.025 5.188 75.674 15.497 111.89a34.03 34.03 0 0 0 34.986 24.746 68.3 68.3 0 0 1 63.488 34.03c13.073 22.597 12.22 50.177-2.253 71.954a34.133 34.133 0 0 0 3.96 42.632 408.405 408.405 0 0 0 193.809 111.958 34.065 34.065 0 0 0 38.912-17.92A67.891 67.891 0 0 1 512 842.069c26.146 0 49.596 14.541 61.201 37.957a34.133 34.133 0 0 0 38.912 17.954 408.576 408.576 0 0 0 193.81-111.992 34.133 34.133 0 0 0 3.924-42.666 67.925 67.925 0 0 1-2.252-71.92 67.345 67.345 0 0 1 63.488-34.03c16.042 0.955 30.617-9.319 35.02-24.747A410.283 410.283 0 0 0 921.6 500.736c0-38.025-5.222-75.674-15.497-111.957" p-id="9173"></path><path d="M512 603.136c-56.457 0-102.4-45.978-102.4-102.4 0-56.49 45.943-102.4 102.4-102.4s102.4 45.91 102.4 102.4c0 56.422-45.943 102.4-102.4 102.4m0-273.067c-94.106 0-170.667 76.527-170.667 170.667 0 94.106 76.561 170.667 170.667 170.667s170.667-76.596 170.667-170.667c0-94.14-76.561-170.667-170.667-170.667" p-id="9174"></path></svg>